<svg xmlns="http://www.w3.org/2000/svg" width="177.21" height="322.86" viewBox="0 0 177.21 322.86"><defs><style>.cls-1{fill:#666;}.cls-2{fill:#52b3d9;}</style></defs><title>logo2</title><g id="Layer_2" data-name="Layer 2"><path class="cls-1" d="M105.65,153c3.1,15.63,5.83,31.31,8.67,47s5.48,31.36,8.16,47l7.68,47.12,7.29,47.17-5.1-4.42,61.5-.25,30.75.12,30.75.15-5.08,4.41,7.2-47.17L265.05,247c2.63-15.69,5.2-31.39,8.06-47.05s5.49-31.35,8.56-47l.59.08-26.39,189-.06.46h-.46l-61.5.07-61.5-.07h-.46l-.06-.46L105.05,153Z" transform="translate(-105.05 -19.74)"/></g><g id="Layer_3" data-name="Layer 3"><path class="cls-2" d="M144.85,315.08c2.64,1.73,5.21,3.53,7.79,5.33s5.11,3.65,7.63,5.51h-2.09q6.81-6.5,13.8-12.78l1.51-1.36,1.74,1.37q7.38,5.81,14.64,11.76h-3.78q7.13-6.12,14.37-12.08l1.95-1.6,1.85,1.6c2.37,2,4.74,4.08,7.09,6.15s4.68,4.15,7,6.24H215.1q7.41-5.79,15-11.38l1.17-.87.92.87c2.27,2.16,4.5,4.37,6.75,6.56s4.44,4.46,6.59,6.76c-2.64-1.72-5.22-3.52-7.8-5.32s-5.11-3.64-7.63-5.51h2.09q-6.81,6.5-13.8,12.78l-1.53,1.37-1.74-1.37c-2.45-1.95-4.92-3.88-7.35-5.85s-4.86-3.94-7.29-5.92h3.8q-7.14,6.12-14.39,12.08L187.94,331l-1.85-1.58Q179,323.3,172,317h3.25q-7.39,5.79-15,11.38l-1.18.87-.91-.87c-2.27-2.16-4.5-4.37-6.75-6.56S147,317.39,144.85,315.08Z" transform="translate(-105.05 -19.74)"/><path class="cls-2" d="M137.42,282.46c2.89,1.93,5.71,3.94,8.54,6s5.61,4.06,8.37,6.14h-2.08q7.56-7.12,15.29-14l1.52-1.37,1.73,1.37q8.13,6.44,16.13,13h-3.78Q191,286.79,199,280.2l1.93-1.6,1.86,1.6c2.62,2.25,5.24,4.5,7.84,6.78s5.18,4.57,7.77,6.86h-3.27c5.44-4.27,10.91-8.49,16.46-12.63l1.17-.87.93.87c2.52,2.37,5,4.8,7.49,7.19s4.93,4.87,7.33,7.39c-2.89-1.93-5.71-3.94-8.54-6s-5.61-4.06-8.38-6.14h2.1q-7.56,7.13-15.29,14l-1.54,1.38-1.73-1.38c-2.7-2.15-5.42-4.29-8.1-6.47s-5.36-4.36-8-6.55h3.79q-7.87,6.75-15.88,13.33L185,299.63,183.14,298q-7.87-6.74-15.6-13.65h3.25q-8.14,6.42-16.46,12.64l-1.16.86-.92-.86c-2.52-2.37-5-4.79-7.49-7.19S139.82,285,137.42,282.46Z" transform="translate(-105.05 -19.74)"/><path class="cls-2" d="M132.61,238.2c2.47,2.61,4.87,5.27,7.27,7.93s4.74,5.37,7.11,8.05l-2-.3,8.48-6.57c2.83-2.19,5.71-4.31,8.55-6.48l1.7-1.29,1.48,1.76c2.3,2.74,4.6,5.48,6.84,8.26l6.78,8.31L175,257.3c2.88-2.11,5.81-4.16,8.72-6.25l8.72-6.22,2.33-1.66,1.76,2.26,6.58,8.46c2.18,2.84,4.37,5.66,6.52,8.51l-3.87-.57,8.89-6c3-2,5.94-4,8.94-5.94l1.93-1.26,1.26,1.73c2.1,2.89,4.24,5.76,6.32,8.67l6.23,8.75-2-.3c3.05-1.88,6.08-3.79,9.14-5.65s6.13-3.7,9.25-5.49c-2.73,2.33-5.51,4.6-8.29,6.85s-5.6,4.47-8.4,6.7l-1,.83-1-1.13-7-8.13c-2.34-2.71-4.61-5.48-6.92-8.21l3.19.47c-2.85,2.16-5.71,4.31-8.6,6.41L209,266.48,206.87,268l-1.74-2.13c-2.26-2.77-4.47-5.58-6.71-8.36l-6.64-8.42,4.08.6-8.8,6.11c-2.95,2-5.86,4.1-8.82,6.1L176,263.47l-1.58-2.1-6.45-8.57c-2.17-2.85-4.28-5.73-6.39-8.62l3.18.47c-3,1.95-6,3.94-9,5.86l-9.06,5.77-1.24.79-.75-1.08c-2-3-4.1-5.87-6.11-8.84S134.56,241.22,132.61,238.2Z" transform="translate(-105.05 -19.74)"/><path class="cls-2" d="M125.76,179.76c2.16,3.35,4.26,6.75,6.35,10.15s4.13,6.82,6.19,10.23l-1.85-.66,10.87-5c3.62-1.66,7.27-3.25,10.91-4.87l1.85-.84,1.09,1.9c2,3.45,4,6.91,5.88,10.4l5.82,10.43-3.58-1.28c3.66-1.58,7.35-3.08,11-4.62l11-4.6,2.51-1,1.27,2.41,5.6,10.55,5.52,10.6-3.58-1.3,11.13-4.33c3.71-1.46,7.43-2.87,11.17-4.26l2.05-.76.9,1.82c1.76,3.58,3.57,7.13,5.3,10.72l5.19,10.77-1.86-.67c3.77-1.31,7.52-2.66,11.3-3.94s7.56-2.55,11.37-3.75c-3.56,1.82-7.14,3.56-10.74,5.29s-7.21,3.42-10.81,5.13l-1.14.54-.72-1.21-6.06-10.31c-2-3.43-4-6.91-6-10.36l2.95,1.06c-3.64,1.63-7.28,3.24-10.94,4.8l-11,4.72-2.33,1-1.25-2.29-5.74-10.48-5.66-10.52,3.79,1.36L182.53,211c-3.7,1.48-7.38,3-11.09,4.44l-2.43.94-1.14-2.23-5.44-10.63c-1.83-3.54-3.61-7.11-5.37-10.68l2.94,1.06c-3.74,1.39-7.45,2.83-11.2,4.18l-11.24,4.08-1.31.47-.53-1.14c-1.69-3.61-3.41-7.21-5.07-10.84S127.34,183.43,125.76,179.76Z" transform="translate(-105.05 -19.74)"/><path class="cls-2" d="M126,100.92q2,6.08,3.83,12.18c1.27,4.06,2.46,8.15,3.68,12.22l-1.47-1c4.18-.78,8.38-1.47,12.57-2.2s8.38-1.44,12.58-2.1l1.87-.3.53,1.92L163,133.94c1.13,4.09,2.2,8.21,3.31,12.31l-3-2,12.6-1.91,12.63-1.79,2.58-.37.66,2.56,3.17,12.35L198,167.45l-3.28-2.22,12.64-1.64L220.05,162l2.44-.3.54,2.31L226,176.46l2.81,12.44-2.41-1.63c4.22-.48,8.45-.92,12.68-1.35s8.46-.89,12.7-1.26l1.25-.11.23,1.1c.85,4.17,1.74,8.33,2.54,12.51s1.64,8.36,2.4,12.55c-1.33-4.05-2.6-8.11-3.85-12.18s-2.46-8.15-3.68-12.22l1.47,1c-4.18.78-8.38,1.47-12.57,2.2s-8.38,1.44-12.58,2.1l-1.88.3-.53-1.93-3.42-12.28-3.31-12.32,3,2-12.61,1.9-12.62,1.82-2.62.38-.66-2.59-3.14-12.36-3-12.38,3.24,2.2L176.68,148,164,149.57l-2.44.3-.54-2.31c-1-4.13-2-8.26-2.92-12.41l-2.81-12.44,2.41,1.63c-4.22.49-8.45.92-12.68,1.35s-8.46.89-12.7,1.27l-1.24.11-.23-1.1c-.85-4.17-1.74-8.33-2.54-12.51S126.7,105.11,126,100.92Z" transform="translate(-105.05 -19.74)"/><path class="cls-2" d="M166.54,19.74c-.34,4.2-.66,8.4-1,12.6s-.77,8.38-1.18,12.57l-1-1.36c4.17.54,8.34,1.08,12.51,1.68L188.32,47l1.93.27-.24,2-1.44,12.54c-.49,4.18-.94,8.37-1.47,12.54L185,71.46l12.47,2c4.16.67,8.32,1.28,12.47,2l2.74.47-.37,2.77-3.33,25-2.46-3.36,24.86,4.35,2.75.49-.38,2.75c-.57,4.17-1.22,8.33-1.85,12.49L230,132.86l-2.13-2.9c4.14.75,8.27,1.57,12.4,2.36l12.39,2.4,2,.39-.33,1.93-2.09,12.45c-.69,4.15-1.42,8.3-2.16,12.44l-1-1.37c4.12.87,8.24,1.74,12.35,2.66s8.22,1.86,12.33,2.8c-4.19-.47-8.38-.92-12.56-1.45s-8.36-1-12.53-1.6l-1.13-.14.12-1.23c.4-4.19.81-8.38,1.27-12.57l1.33-12.56,1.7,2.32-12.49-1.85c-4.16-.62-8.33-1.21-12.48-1.88l-2.44-.4.31-2.5,1.55-12.53c.52-4.18,1-8.35,1.59-12.52l2.37,3.24-24.89-4.14-2.88-.48.41-2.88,3.55-25,2.37,3.24c-4.14-.71-8.27-1.5-12.41-2.26l-12.41-2.29-2.48-.46.36-2.43c.61-4.17,1.3-8.32,2-12.47l2-12.46,1.69,2.3-12.37-2.51c-4.13-.82-8.25-1.69-12.36-2.56l-1.2-.26.19-1.11q1.1-6.21,2.26-12.43C164.9,28,165.73,23.88,166.54,19.74Z" transform="translate(-105.05 -19.74)"/></g></svg>